<?xml version="1.0" encoding="UTF-8"?>
<svg version="1.1" xmlns="http://www.w3.org/2000/svg" width="200" height="200">
<path d="M0 0 C5.94 0 11.88 0 18 0 C19.49675916 2.99351833 19.15295447 6.06856318 19.15771484 9.35205078 C19.16279556 10.11002457 19.16787628 10.86799835 19.17311096 11.64894104 C19.18382518 13.29842085 19.19244123 14.94791529 19.19923019 16.59741592 C19.21101556 19.21263464 19.23047011 21.82768795 19.25234985 24.44284058 C19.31395905 31.87980596 19.36790511 39.31675685 19.40136719 46.75390625 C19.42238028 51.30158713 19.45774292 55.84897038 19.50212479 60.39648056 C19.51623957 62.12588864 19.52499696 63.85534942 19.52817917 65.58481216 C19.53311961 68.01404909 19.55635904 70.4425053 19.58349609 72.87158203 C19.58048996 73.57838608 19.57748383 74.28519012 19.5743866 75.01341248 C19.66148463 80.2961872 20.97417818 84.20063228 23 89 C23.02578125 87.73027344 23.0515625 86.46054688 23.078125 85.15234375 C23.49383641 70.90136745 24.29837757 55.41367345 34 44 C37.6330426 41.43141574 40.36204233 40.38549263 44.90234375 40.59765625 C59.35147069 43.36909028 72.27308665 62.08776049 80 73.4375 C96.95103278 99.01985898 104.3282132 126.90664598 98.34423828 157.44580078 C96.53717118 165.73041375 94.14517874 173.00113503 88 179 C78.42307069 184.74067723 66.0232336 182.36079726 55.58984375 180.05078125 C43.1935046 176.42225543 34.55751905 170.06987126 28 159 C25.10088258 152.34043318 23.84407661 145.88710701 24.10546875 138.6328125 C24.11771484 137.41722656 24.12996094 136.20164063 24.14257812 134.94921875 C24.17244449 132.40668177 24.24515901 129.86427604 24.36132812 127.32421875 C24.3553286 123.54451908 24.1995205 120.5901497 23 117 C19.44297135 113.53116215 15.76099715 111.40765018 11 110 C4.84197273 110.40267802 -0.65033225 112.56548562 -5 117 C-6.31440725 121.38943839 -6.12825178 125.57668483 -5.9375 130.125 C-5.6720243 143.77803611 -6.77815322 157.82129858 -16.34765625 168.49609375 C-28.59908472 179.64692108 -44.40744037 182.45546622 -60.46484375 182.265625 C-66.1384887 181.83931798 -68.68984868 180.51299388 -72.6015625 176.2578125 C-83.9126946 161.49204893 -83.71421484 137.1540126 -81.71582031 119.48779297 C-79.9844983 108.68443643 -75.79842901 98.76522395 -71 89 C-70.52691406 88.02546875 -70.05382812 87.0509375 -69.56640625 86.046875 C-61.6185702 70.64653546 -46.03243962 46.79827732 -29 41 C-24.83818023 40.32873875 -22.58300097 40.139737 -18.88671875 42.1484375 C-11.15633887 48.11728072 -7.97277898 57.56035998 -6.3359375 66.93359375 C-5.53321363 74.26078256 -5.28723478 81.63771894 -5 89 C-1.19552823 80.24567165 -1.540942 71.48856856 -1.5234375 62.12890625 C-1.50910993 60.39776913 -1.49334978 58.66664334 -1.47622681 56.93553162 C-1.43457593 52.40396356 -1.40944025 47.87246579 -1.38873291 43.34075928 C-1.35276176 36.06355627 -1.2919973 28.78652602 -1.23024368 21.50950432 C-1.21114516 18.96902894 -1.19942633 16.42860015 -1.18881226 13.88807678 C-1.17860574 12.34017838 -1.1682483 10.79228097 -1.15771484 9.24438477 C-1.15667252 8.53635712 -1.15563019 7.82832947 -1.15455627 7.09884644 C-1.11343143 2.22686287 -1.11343143 2.22686287 0 0 Z M6 7 C5.99635437 7.92770706 5.99270874 8.85541412 5.98895264 9.81123352 C5.95094076 18.59355576 5.89393921 27.37551162 5.81609726 36.15757465 C5.77674313 40.67155126 5.74449592 45.18533632 5.72900391 49.69946289 C5.71375727 54.06340219 5.67917173 58.42681443 5.63169098 62.79051781 C5.61695918 64.4476581 5.60896374 66.10487368 5.60811615 67.76207924 C5.5965656 79.03122106 5.25935174 90.07840428 -2.75 98.875 C-5.48286682 101.86417804 -5.48286682 101.86417804 -6.203125 105.7578125 C-6.13609375 106.49773437 -6.0690625 107.23765625 -6 108 C-3.32397917 107.0060494 -1.11510297 106.08550507 1.1875 104.375 C5.44325384 102.29440923 9.35463011 102.21049859 14 103 C16.33985321 104.11754183 18.3221564 105.3688039 20.40625 106.90625 C21.95267805 108.18861417 21.95267805 108.18861417 24 108 C24.27095089 105.00911905 24.31074756 103.46262979 22.609375 100.9296875 C21.38225379 99.573667 20.1531262 98.21945912 18.921875 96.8671875 C12.36775975 87.08930012 12.3964184 76.62801834 12.390625 65.30078125 C12.37561678 63.61254817 12.35888417 61.92432962 12.34051514 60.23612976 C12.29712537 55.82873804 12.2769061 51.42154427 12.26177979 47.01397705 C12.24210549 42.50203889 12.20014765 37.99031135 12.16015625 33.47851562 C12.08516212 24.65239932 12.03468516 15.8263664 12 7 C10.02 7 8.04 7 6 7 Z M-40.8125 59.4375 C-60.34040318 79.02098545 -75.14337496 105.93362351 -75.3125 134.0625 C-75.14998385 146.27780491 -74.37160888 161.75660814 -66.375 171.6875 C-63.38226143 174.60148229 -61.92906551 175.16754443 -57.875 175.25 C-45.23978377 175.06714593 -32.66384308 172.67357122 -22.9140625 164.18359375 C-14.52070281 155.41837635 -12.83334209 144.83234337 -12.9375 133.0625 C-12.94201172 132.37865234 -12.94652344 131.69480469 -12.95117188 130.99023438 C-12.9628044 129.32678396 -12.98073306 127.6633795 -13 126 C-13.74765625 126.74765625 -14.4953125 127.4953125 -15.265625 128.265625 C-16.16796875 129.16796875 -17.0703125 130.0703125 -18 131 C-18.61359375 131.63421875 -19.2271875 132.2684375 -19.859375 132.921875 C-24.65913571 137.56296593 -29.64011212 140.49834969 -35.5625 143.4375 C-44.23589658 147.77560799 -50.59574064 152.59306109 -54 162 C-55.65 162 -57.3 162 -59 162 C-58.56826496 155.84777564 -57.34594658 152.18082051 -54 147 C-56.97 146.01 -59.94 145.02 -63 144 C-63 142.02 -63 140.04 -63 138 C-59.31136044 138.45167015 -55.93130928 139.02131781 -52.375 140.125 C-46.49086649 141.6505161 -42.30111218 139.40032048 -37.0625 136.75 C-36.46759766 136.46253906 -35.87269531 136.17507812 -35.25976562 135.87890625 C-28.90711382 132.69910895 -24.22248499 128.83058191 -20.1875 122.9375 C-19.60355469 122.10089844 -19.01960938 121.26429688 -18.41796875 120.40234375 C-17.10206122 118.17291364 -16.55392125 116.49083758 -16 114 C-19.00271796 114.23004694 -22.00048715 114.48337664 -25 114.75 C-25.83917969 114.811875 -26.67835937 114.87375 -27.54296875 114.9375 C-32.72297206 115.41936077 -36.6624668 116.45374956 -41.19262695 119.04077148 C-45.23095649 121.18403729 -49.43719999 122.19535 -54 121.625 C-54.66 121.41875 -55.32 121.2125 -56 121 C-56 119.68 -56 118.36 -56 117 C-53.03 116.01 -50.06 115.02 -47 114 C-47.804375 113.030625 -48.60875 112.06125 -49.4375 111.0625 C-52.45726832 106.89965554 -52.87416828 103.04470785 -53 98 C-51.35 98 -49.7 98 -48 98 C-47.38151042 99.98567708 -46.76302083 101.97135417 -46.14453125 103.95703125 C-44.54664712 106.80922716 -42.96891404 107.66440218 -40 109 C-31.00305672 110.12049843 -22.14111692 109.07055846 -14 105 C-15.27080236 100.14784552 -17.14187255 96.26313912 -21 93 C-23.24187071 91.86482409 -25.51733724 90.93051895 -27.84765625 89.9921875 C-31.79292922 88.17349542 -34.15750903 85.44427024 -36.3125 81.75 C-37.29402215 77.82391139 -37.15783722 74.02484922 -37 70 C-35.35 70 -33.7 70 -32 70 C-31.90203125 70.59167969 -31.8040625 71.18335937 -31.703125 71.79296875 C-31.55359375 72.58316406 -31.4040625 73.37335938 -31.25 74.1875 C-31.11078125 74.96480469 -30.9715625 75.74210937 -30.828125 76.54296875 C-29.28722218 81.11479834 -26.95256908 83.46964451 -22.765625 85.80078125 C-21.60546875 86.29964844 -20.4453125 86.79851562 -19.25 87.3125 C-18.07953125 87.82425781 -16.9090625 88.33601563 -15.703125 88.86328125 C-14.81109375 89.23839844 -13.9190625 89.61351562 -13 90 C-12.54184926 75.98398101 -12.55280013 61.9320183 -21 50 C-21.66 49.34 -22.32 48.68 -23 48 C-30.56284905 48 -35.62169409 54.37804376 -40.8125 59.4375 Z M39 49.9375 C31.16640908 61.93268609 30.68899863 74.60645941 30.734375 88.5625 C30.73302361 90.0450039 30.73107915 91.52750736 30.72857666 93.01000977 C30.72564767 96.09949003 30.72985065 99.18885373 30.73925781 102.27832031 C30.75065104 106.20837182 30.74407953 110.13815001 30.73211288 114.06819153 C30.7248337 117.12424726 30.72720979 120.18023981 30.73236847 123.23629761 C30.73368828 124.68415358 30.73211687 126.13201558 30.72740936 127.5798645 C30.69500238 140.34327235 30.68875563 153.09383638 39.82421875 162.97265625 C49.87702067 172.2749543 62.21567122 174.76858207 75.625 175.5 C79.37613233 175.33636 82.00325788 174.49674212 84.7578125 171.7421875 C89.04007998 165.73624003 90.78114254 158.17201391 92 151 C92.11214844 150.35160156 92.22429687 149.70320313 92.33984375 149.03515625 C96.25283069 121.10822208 87.40312273 95.45176876 70.65478516 73.21386719 C59.42792127 58.69786991 59.42792127 58.69786991 45 48 C41.01472954 47.53613652 41.01472954 47.53613652 39 49.9375 Z " fill="#000000" transform="translate(91,9)"/>
<path d="M0 0 C2.86262257 2.00992648 4.64014872 3.43748788 5.4453125 6.93359375 C5.66317186 10.77518043 5.2331958 12.63465991 3.125 15.9375 C0.33724206 18.64326506 -0.43822049 18.96879003 -4.375 19.1875 C-9.55704698 18.91946309 -9.55704698 18.91946309 -12 17 C-14.32455736 13.55324254 -15.00954896 11.55383955 -14.9375 7.375 C-13.91501484 3.69405342 -13.002389 2.29594453 -10 0 C-6.1544104 -1.2818632 -3.93271581 -0.94927623 0 0 Z M-7 7 C-6.67 8.65 -6.34 10.3 -6 12 C-4.68 11.34 -3.36 10.68 -2 10 C-2.33 9.01 -2.66 8.02 -3 7 C-4.32 7 -5.64 7 -7 7 Z " fill="#000000" transform="translate(161,144)"/>
<path d="M0 0 C2.62195076 1.68073767 3.66412668 2.88508717 4.5625 5.8671875 C5.20517 9.41526147 5.20740646 11.49785805 3.8125 14.875 C1.89339509 17.12498507 0.72044058 17.92845955 -2 19 C-4.25390625 19.08203125 -4.25390625 19.08203125 -6.5625 18.8125 C-7.32691406 18.73644531 -8.09132812 18.66039063 -8.87890625 18.58203125 C-11.45098353 17.87624946 -12.41645005 17.13561324 -14 15 C-15.2420849 10.80206748 -15.45650316 7.12924465 -13.8125 3.0625 C-9.72872338 -1.58455615 -5.75702684 -1.5958904 0 0 Z M-7 7 C-7 8.32 -7 9.64 -7 11 C-5.68 11 -4.36 11 -3 11 C-3 9.68 -3 8.36 -3 7 C-4.32 7 -5.64 7 -7 7 Z " fill="#000000" transform="translate(152,94)"/>
<path d="M0 0 C1.9375 1.0625 1.9375 1.0625 3 3 C3.36528977 6.4093712 3.6140629 8.88023824 1.9375 11.9375 C-1.11976176 13.6140629 -3.5906288 13.36528977 -7 13 C-8.9375 11.9375 -8.9375 11.9375 -10 10 C-10.36528977 6.5906288 -10.6140629 4.11976176 -8.9375 1.0625 C-5.88023824 -0.6140629 -3.4093712 -0.36528977 0 0 Z " fill="#000000" transform="translate(166,112)"/>
<path d="M0 0 C1.98 0 3.96 0 6 0 C6.625 2.375 6.625 2.375 7 5 C6.34 5.66 5.68 6.32 5 7 C2.375 6.625 2.375 6.625 0 6 C-1.125 2.25 -1.125 2.25 0 0 Z " fill="#000000" transform="translate(150,128)"/>
<path d="M0 0 C2.5 0.125 2.5 0.125 3.5 1.125 C3.54063832 2.79117115 3.542721 4.45888095 3.5 6.125 C1.5085944 6.50633299 -0.49279077 6.83825582 -2.5 7.125 C-3.5 6.125 -3.5 6.125 -3.625 3.625 C-3.45661291 0.25725827 -3.36774173 0.16838709 0 0 Z " fill="#000000" transform="translate(137.5,152.875)"/>
<path d="M0 0 C2.625 0.375 2.625 0.375 5 1 C5 2.98 5 4.96 5 7 C3.02 7 1.04 7 -1 7 C-1.625 4.625 -1.625 4.625 -2 2 C-1.34 1.34 -0.68 0.68 0 0 Z " fill="#000000" transform="translate(170,140)"/>
<path d="M0 0 C2.5 0.125 2.5 0.125 3.5 1.125 C3.54063832 2.79117115 3.542721 4.45888095 3.5 6.125 C-1.25 7.25 -1.25 7.25 -3.5 6.125 C-3.542721 4.45888095 -3.54063832 2.79117115 -3.5 1.125 C-2.5 0.125 -2.5 0.125 0 0 Z " fill="#000000" transform="translate(137.5,127.875)"/>
<path d="M0 0 C2.625 0.375 2.625 0.375 5 1 C5.042721 2.66611905 5.04063832 4.33382885 5 6 C4 7 4 7 1.4375 7.0625 C0.2309375 7.0315625 0.2309375 7.0315625 -1 7 C-1.625 4.625 -1.625 4.625 -2 2 C-1.34 1.34 -0.68 0.68 0 0 Z " fill="#000000" transform="translate(164,168)"/>
</svg>
